<?xml version="1.0" standalone="no"?>
<!DOCTYPE svg PUBLIC "-//W3C//DTD SVG 20010904//EN"
 "http://www.w3.org/TR/2001/REC-SVG-20010904/DTD/svg10.dtd">
<svg version="1.0" xmlns="http://www.w3.org/2000/svg"
 width="2400.000000pt" height="2400.000000pt" viewBox="0 0 2400.000000 2400.000000"
 preserveAspectRatio="xMidYMid meet">

<g transform="translate(0.000000,2400.000000) scale(0.100000,-0.100000)"
fill="#000000" stroke="none">
<path d="M11920 20960 c-306 -43 -595 -193 -808 -419 -56 -60 -429 -711 -4009
-7008 -3651 -6422 -3948 -6941 -3958 -6917 -10 24 -38 -26 -361 -647 -193
-371 -364 -705 -381 -744 -111 -251 -148 -477 -124 -772 52 -648 472 -1115
1128 -1255 l108 -23 8410 -3 c9261 -3 8523 -7 8746 59 459 136 831 513 964
978 44 155 58 263 57 441 -2 393 -60 581 -323 1040 -49 85 -1921 3445 -4162
7465 l-4073 7310 -104 105 c-193 195 -428 323 -690 375 -93 19 -333 27 -420
15z m330 -963 c30 -14 69 -39 87 -54 23 -20 1254 -2220 4127 -7373 2252 -4040
4124 -7397 4160 -7460 36 -63 80 -153 97 -200 28 -74 32 -101 37 -215 3 -101
1 -145 -12 -195 -47 -184 -168 -319 -333 -370 -65 -20 -80 -20 -8437 -20
-7382 0 -8379 2 -8429 15 -124 32 -226 104 -280 197 -41 68 -57 149 -57 279 0
142 10 176 102 359 38 74 1966 3472 4284 7551 4077 7170 4218 7416 4263 7447
85 59 135 73 241 69 78 -3 105 -8 150 -30z"/>
<path d="M12035 15943 c-260 -33 -589 -158 -825 -313 -129 -85 -293 -250 -342
-345 -48 -92 -68 -165 -68 -242 0 -34 99 -1230 219 -2655 121 -1426 222 -2633
226 -2683 12 -173 69 -346 155 -470 49 -72 157 -182 225 -231 81 -57 211 -119
310 -146 67 -18 106 -22 240 -22 145 1 168 3 250 28 50 15 126 45 170 66 274
135 476 430 500 733 58 719 385 5344 383 5407 -7 148 -72 273 -218 420 -224
225 -593 403 -933 449 -74 10 -227 12 -292 4z"/>
<path d="M11964 8155 c-311 -55 -607 -228 -800 -469 -249 -311 -343 -698 -264
-1088 107 -521 528 -929 1057 -1023 115 -21 332 -21 448 0 535 95 947 500
1062 1045 27 129 24 372 -6 509 -114 519 -495 900 -1016 1017 -99 22 -376 27
-481 9z"/>
</g>
</svg>
